<svg width="355" height="84" viewBox="0 0 355 84" fill="none" xmlns="http://www.w3.org/2000/svg">
<g filter="url(#filter0_dd)">
<rect x="3" y="2" width="349" height="78" rx="5" fill="#F9F9F9"/>
</g>
<path d="M119.512 32.248C121.272 32.248 122.816 32.592 124.144 33.28C125.488 33.968 126.52 34.952 127.24 36.232C127.976 37.496 128.344 38.968 128.344 40.648C128.344 42.328 127.976 43.8 127.24 45.064C126.52 46.312 125.488 47.28 124.144 47.968C122.816 48.656 121.272 49 119.512 49H113.656V32.248H119.512ZM119.392 46.144C121.152 46.144 122.512 45.664 123.472 44.704C124.432 43.744 124.912 42.392 124.912 40.648C124.912 38.904 124.432 37.544 123.472 36.568C122.512 35.576 121.152 35.08 119.392 35.08H117.016V46.144H119.392ZM136.763 49.216C135.483 49.216 134.331 48.936 133.307 48.376C132.283 47.8 131.475 46.992 130.883 45.952C130.307 44.912 130.019 43.712 130.019 42.352C130.019 40.992 130.315 39.792 130.907 38.752C131.515 37.712 132.339 36.912 133.379 36.352C134.419 35.776 135.579 35.488 136.859 35.488C138.139 35.488 139.299 35.776 140.339 36.352C141.379 36.912 142.195 37.712 142.787 38.752C143.395 39.792 143.699 40.992 143.699 42.352C143.699 43.712 143.387 44.912 142.763 45.952C142.155 46.992 141.323 47.8 140.267 48.376C139.227 48.936 138.059 49.216 136.763 49.216ZM136.763 46.288C137.371 46.288 137.939 46.144 138.467 45.856C139.011 45.552 139.443 45.104 139.763 44.512C140.083 43.92 140.243 43.2 140.243 42.352C140.243 41.088 139.907 40.12 139.235 39.448C138.579 38.76 137.771 38.416 136.811 38.416C135.851 38.416 135.043 38.76 134.387 39.448C133.747 40.12 133.427 41.088 133.427 42.352C133.427 43.616 133.739 44.592 134.363 45.28C135.003 45.952 135.803 46.288 136.763 46.288ZM164.596 35.704L160.708 49H157.084L154.66 39.712L152.236 49H148.588L144.676 35.704H148.084L150.436 45.832L152.98 35.704H156.532L159.028 45.808L161.38 35.704H164.596ZM173.782 35.512C175.366 35.512 176.646 36.016 177.622 37.024C178.598 38.016 179.086 39.408 179.086 41.2V49H175.726V41.656C175.726 40.6 175.462 39.792 174.934 39.232C174.406 38.656 173.686 38.368 172.774 38.368C171.846 38.368 171.11 38.656 170.566 39.232C170.038 39.792 169.774 40.6 169.774 41.656V49H166.414V35.704H169.774V37.36C170.222 36.784 170.79 36.336 171.478 36.016C172.182 35.68 172.95 35.512 173.782 35.512ZM185.641 31.24V49H182.281V31.24H185.641ZM194.865 49.216C193.585 49.216 192.433 48.936 191.409 48.376C190.385 47.8 189.577 46.992 188.985 45.952C188.409 44.912 188.121 43.712 188.121 42.352C188.121 40.992 188.417 39.792 189.009 38.752C189.617 37.712 190.441 36.912 191.481 36.352C192.521 35.776 193.681 35.488 194.961 35.488C196.241 35.488 197.401 35.776 198.441 36.352C199.481 36.912 200.297 37.712 200.889 38.752C201.497 39.792 201.801 40.992 201.801 42.352C201.801 43.712 201.489 44.912 200.865 45.952C200.257 46.992 199.425 47.8 198.369 48.376C197.329 48.936 196.161 49.216 194.865 49.216ZM194.865 46.288C195.473 46.288 196.041 46.144 196.569 45.856C197.113 45.552 197.545 45.104 197.865 44.512C198.185 43.92 198.345 43.2 198.345 42.352C198.345 41.088 198.009 40.12 197.337 39.448C196.681 38.76 195.873 38.416 194.913 38.416C193.953 38.416 193.145 38.76 192.489 39.448C191.849 40.12 191.529 41.088 191.529 42.352C191.529 43.616 191.841 44.592 192.465 45.28C193.105 45.952 193.905 46.288 194.865 46.288ZM203.401 42.304C203.401 40.96 203.665 39.768 204.193 38.728C204.737 37.688 205.465 36.888 206.377 36.328C207.305 35.768 208.337 35.488 209.473 35.488C210.465 35.488 211.329 35.688 212.065 36.088C212.817 36.488 213.417 36.992 213.865 37.6V35.704H217.249V49H213.865V47.056C213.433 47.68 212.833 48.2 212.065 48.616C211.313 49.016 210.441 49.216 209.449 49.216C208.329 49.216 207.305 48.928 206.377 48.352C205.465 47.776 204.737 46.968 204.193 45.928C203.665 44.872 203.401 43.664 203.401 42.304ZM213.865 42.352C213.865 41.536 213.705 40.84 213.385 40.264C213.065 39.672 212.633 39.224 212.089 38.92C211.545 38.6 210.961 38.44 210.337 38.44C209.713 38.44 209.137 38.592 208.609 38.896C208.081 39.2 207.649 39.648 207.313 40.24C206.993 40.816 206.833 41.504 206.833 42.304C206.833 43.104 206.993 43.808 207.313 44.416C207.649 45.008 208.081 45.464 208.609 45.784C209.153 46.104 209.729 46.264 210.337 46.264C210.961 46.264 211.545 46.112 212.089 45.808C212.633 45.488 213.065 45.04 213.385 44.464C213.705 43.872 213.865 43.168 213.865 42.352ZM219.667 42.304C219.667 40.96 219.931 39.768 220.459 38.728C221.003 37.688 221.739 36.888 222.667 36.328C223.595 35.768 224.627 35.488 225.763 35.488C226.627 35.488 227.451 35.68 228.235 36.064C229.019 36.432 229.643 36.928 230.107 37.552V31.24H233.515V49H230.107V47.032C229.691 47.688 229.107 48.216 228.355 48.616C227.603 49.016 226.731 49.216 225.739 49.216C224.619 49.216 223.595 48.928 222.667 48.352C221.739 47.776 221.003 46.968 220.459 45.928C219.931 44.872 219.667 43.664 219.667 42.304ZM230.131 42.352C230.131 41.536 229.971 40.84 229.651 40.264C229.331 39.672 228.899 39.224 228.355 38.92C227.811 38.6 227.227 38.44 226.603 38.44C225.979 38.44 225.403 38.592 224.875 38.896C224.347 39.2 223.915 39.648 223.579 40.24C223.259 40.816 223.099 41.504 223.099 42.304C223.099 43.104 223.259 43.808 223.579 44.416C223.915 45.008 224.347 45.464 224.875 45.784C225.419 46.104 225.995 46.264 226.603 46.264C227.227 46.264 227.811 46.112 228.355 45.808C228.899 45.488 229.331 45.04 229.651 44.464C229.971 43.872 230.131 43.168 230.131 42.352ZM256.843 49H253.483L245.875 37.504V49H242.515V32.224H245.875L253.483 43.744V32.224H256.843V49ZM266.068 49.216C264.788 49.216 263.636 48.936 262.612 48.376C261.588 47.8 260.78 46.992 260.188 45.952C259.612 44.912 259.324 43.712 259.324 42.352C259.324 40.992 259.62 39.792 260.212 38.752C260.82 37.712 261.644 36.912 262.684 36.352C263.724 35.776 264.884 35.488 266.164 35.488C267.444 35.488 268.604 35.776 269.644 36.352C270.684 36.912 271.5 37.712 272.092 38.752C272.7 39.792 273.004 40.992 273.004 42.352C273.004 43.712 272.692 44.912 272.068 45.952C271.46 46.992 270.628 47.8 269.572 48.376C268.532 48.936 267.364 49.216 266.068 49.216ZM266.068 46.288C266.676 46.288 267.244 46.144 267.772 45.856C268.316 45.552 268.748 45.104 269.068 44.512C269.388 43.92 269.548 43.2 269.548 42.352C269.548 41.088 269.212 40.12 268.54 39.448C267.884 38.76 267.076 38.416 266.116 38.416C265.156 38.416 264.348 38.76 263.692 39.448C263.052 40.12 262.732 41.088 262.732 42.352C262.732 43.616 263.044 44.592 263.668 45.28C264.308 45.952 265.108 46.288 266.068 46.288ZM293.901 35.704L290.013 49H286.389L283.965 39.712L281.541 49H277.893L273.981 35.704H277.389L279.741 45.832L282.285 35.704H285.837L288.333 45.808L290.685 35.704H293.901Z" fill="#4A4A4A"/>
<path fill-rule="evenodd" clip-rule="evenodd" d="M26.5 58.5C26.5 57.837 26.7634 57.2011 27.2322 56.7322C27.7011 56.2634 28.337 56 29 56H59C59.663 56 60.2989 56.2634 60.7678 56.7322C61.2366 57.2011 61.5 57.837 61.5 58.5C61.5 59.163 61.2366 59.7989 60.7678 60.2678C60.2989 60.7366 59.663 61 59 61H29C28.337 61 27.7011 60.7366 27.2322 60.2678C26.7634 59.7989 26.5 59.163 26.5 58.5ZM34.7325 39.2325C35.2013 38.7638 35.8371 38.5005 36.5 38.5005C37.1629 38.5005 37.7987 38.7638 38.2675 39.2325L41.5 42.465V23.5C41.5 22.837 41.7634 22.2011 42.2322 21.7322C42.7011 21.2634 43.337 21 44 21C44.663 21 45.2989 21.2634 45.7678 21.7322C46.2366 22.2011 46.5 22.837 46.5 23.5V42.465L49.7325 39.2325C49.9631 38.9937 50.239 38.8033 50.544 38.6722C50.849 38.5412 51.177 38.4723 51.509 38.4694C51.8409 38.4665 52.1701 38.5297 52.4774 38.6554C52.7846 38.7811 53.0638 38.9668 53.2985 39.2015C53.5332 39.4362 53.7189 39.7154 53.8446 40.0226C53.9703 40.3299 54.0335 40.6591 54.0306 40.991C54.0277 41.323 53.9588 41.651 53.8278 41.956C53.6967 42.261 53.5063 42.5369 53.2675 42.7675L45.7675 50.2675C45.2987 50.7362 44.6629 50.9995 44 50.9995C43.3371 50.9995 42.7013 50.7362 42.2325 50.2675L34.7325 42.7675C34.2638 42.2987 34.0005 41.6629 34.0005 41C34.0005 40.3371 34.2638 39.7013 34.7325 39.2325V39.2325Z" fill="#4A4A4A"/>
<rect x="339.2" y="2.2" width="12.6" height="12.6" rx="4.8" stroke="#4A4A4A" stroke-width="0.4"/>
<path d="M346.306 4.19L346.13 9.503H344.832L344.645 4.19H346.306ZM345.514 12.077C345.235 12.077 345.004 11.9927 344.821 11.824C344.645 11.648 344.557 11.4317 344.557 11.175C344.557 10.9183 344.645 10.7057 344.821 10.537C345.004 10.361 345.235 10.273 345.514 10.273C345.785 10.273 346.009 10.361 346.185 10.537C346.361 10.7057 346.449 10.9183 346.449 11.175C346.449 11.4317 346.361 11.648 346.185 11.824C346.009 11.9927 345.785 12.077 345.514 12.077Z" fill="#4A4A4A"/>
<defs>
<filter id="filter0_dd" x="0" y="0" width="355" height="84" filterUnits="userSpaceOnUse" color-interpolation-filters="sRGB">
<feFlood flood-opacity="0" result="BackgroundImageFix"/>
<feColorMatrix in="SourceAlpha" type="matrix" values="0 0 0 0 0 0 0 0 0 0 0 0 0 0 0 0 0 0 127 0" result="hardAlpha"/>
<feOffset dy="1"/>
<feGaussianBlur stdDeviation="1.5"/>
<feColorMatrix type="matrix" values="0 0 0 0 0 0 0 0 0 0 0 0 0 0 0 0 0 0 0.1 0"/>
<feBlend mode="normal" in2="BackgroundImageFix" result="effect1_dropShadow"/>
<feColorMatrix in="SourceAlpha" type="matrix" values="0 0 0 0 0 0 0 0 0 0 0 0 0 0 0 0 0 0 127 0" result="hardAlpha"/>
<feOffset dy="1"/>
<feGaussianBlur stdDeviation="1"/>
<feColorMatrix type="matrix" values="0 0 0 0 0 0 0 0 0 0 0 0 0 0 0 0 0 0 0.06 0"/>
<feBlend mode="normal" in2="effect1_dropShadow" result="effect2_dropShadow"/>
<feBlend mode="normal" in="SourceGraphic" in2="effect2_dropShadow" result="shape"/>
</filter>
</defs>
</svg>
